#!OML:ASF F:\VICON\USERDATA\INSTALL\rory3\rory3.ASF
:FULLY-SPECIFIED
:DEGREES
2982
root 6.52249 17.8043 -7.23986 -542.948 -0.254228 -536.943
lowerback 14.452 0.708285 0.62071
upperback 0.898892 0.959299 1.23673
thorax -7.16969 0.39244 0.776206
lowerneck -13.2012 -3.3418 -14.302
upperneck 37.6376 -9.56598 8.85556
head 17.0039 -6.44453 4.29291
rclavicle -1.11972e-014 3.97569e-016
rhumerus -33.4219 -19.7253 -76.6951
rradius 30.6549
rwrist 7.60983
rhand -19.5232 8.74714
rfingers 7.12502
rthumb 6.80011 -21.1237
lclavicle -1.11972e-014 3.97569e-016
lhumerus -36.4207 10.4235 71.6474
lradius 33.3116
lwrist -3.84052
lhand -21.7586 23.3319
lfingers 7.12502
lthumb 4.64185 53.261
rfemur -4.87947 -1.90629 14.6696
rtibia 24.667
rfoot -13.9266 0.410993
rtoes -15.7795
lfemur -0.836902 -6.27036 -3.43451
ltibia 24.6906
lfoot -0.908379 21.0591
ltoes -4.24086
2983
root 6.62489 17.823 -7.23016 -542.873 -0.0767388 -536.804
lowerback 14.4784 0.713258 0.760934
upperback 0.979615 0.9825 1.29443
thorax -7.09674 0.396186 0.753767
lowerneck -13.1259 -3.37696 -14.3935
upperneck 37.5819 -9.63159 8.90144
head 16.9762 -6.47949 4.3175
rclavicle 7.1811e-015 1.42131e-014
rhumerus -33.0712 -19.5772 -76.8091
rradius 30.6647
rwrist 7.41802
rhand -19.4883 8.84408
rfingers 7.12502
rthumb 6.83376 -21.0256
lclavicle 7.1811e-015 1.42131e-014
lhumerus -36.314 10.2114 71.973
lradius 33.2899
lwrist -3.76724
lhand -21.4404 23.4039
lfingers 7.12502
lthumb 4.94909 53.3261
rfemur -4.84443 -1.71431 15.1778
rtibia 24.3342
rfoot -14.0302 0.618228
rtoes -15.6241
lfemur -1.41158 -6.11008 -3.16013
ltibia 25.43
lfoot -0.233046 21.7014
ltoes -2.15999
2984
root 6.71727 17.8457 -7.22476 -542.771 0.0265865 -537.042
lowerback 14.3763 0.697012 0.603746
upperback 1.08528 0.922923 1.22933
thorax -6.9277 0.369434 0.7866
lowerneck -13.2199 -3.38734 -14.2232
upperneck 37.6233 -9.623 8.72011
head 16.9955 -6.46975 4.20387
rclavicle 2.14315e-016 -8.29926e-015
rhumerus -32.7519 -19.6059 -76.8354
rradius 30.5958
rwrist 7.46602
rhand -19.5696 9.90897
rfingers 7.12502
rthumb 6.75529 -19.9633
lclavicle 2.14315e-016 -8.29926e-015
lhumerus -36.2264 10.1226 72.2173
lradius 33.4555
lwrist -4.06636
lhand -20.6314 23.9144
lfingers 7.12502
lthumb 5.73026 53.8169
rfemur -4.77973 -1.83079 15.1857
rtibia 23.9928
rfoot -14.1958 1.00786
rtoes -16.1014
lfemur -2.01485 -6.08675 -3.4128
ltibia 26.2389
lfoot -0.00768005 22.4697
ltoes 1.41669
2985
root 6.81073 17.8659 -7.21474 -542.689 0.14347 -537.019
lowerback 14.4374 0.433442 0.615004
upperback 1.09887 0.955455 1.21482
thorax -6.94899 0.546738 0.738085
lowerneck -13.2518 -3.36342 -14.058
upperneck 37.769 -9.66323 8.59736
head 17.0682 -6.49521 4.10898
rclavicle -4.75841e-015 -8.94531e-015
rhumerus -32.7034 -19.6233 -76.8072
rradius 30.8205
rwrist 7.49871
rhand -19.496 10.211
rfingers 7.12502
rthumb 6.82637 -19.6589
lclavicle -4.75841e-015 -8.94531e-015
lhumerus -36.2264 9.73596 72.5172
lradius 33.5458
lwrist -3.92247
lhand -19.1801 24.5346
lfingers 7.12502
lthumb 7.13135 54.3945
rfemur -4.76398 -1.81343 15.5307
rtibia 23.6988
rfoot -14.1905 1.21864
rtoes -15.8982
lfemur -2.62494 -5.88091 -3.34421
ltibia 27.0592
lfoot -0.269698 22.8537
ltoes 4.82808
2986
root 6.90015 17.8816 -7.20128 -542.562 0.225364 -537.016
lowerback 14.572 0.375506 0.670247
upperback 1.0158 0.885409 1.20513
thorax -7.11123 0.50847 0.709639
lowerneck -13.2493 -3.31269 -13.9987
upperneck 37.9135 -9.68147 8.56229
head 17.1415 -6.52248 4.07746
rclavicle 1.9102e-015 2.18663e-015
rhumerus -32.7319 -19.3806 -76.8276
rradius 31.179
rwrist 7.4243
rhand -19.3973 9.52888
rfingers 7.12502
rthumb 6.92168 -20.338
lclavicle 1.9102e-015 2.18663e-015
lhumerus -36.3322 9.39928 72.805
lradius 33.5053
lwrist -3.80348
lhand -18.6048 24.9408
lfingers 7.12502
lthumb 7.68662 54.7811
rfemur -4.8094 -1.77703 15.8496
rtibia 23.4501
rfoot -14.1544 1.37413
rtoes -15.3106
lfemur -3.30959 -5.51073 -3.31575
ltibia 27.8625
lfoot -0.48491 22.6961
ltoes 5.99018
2987
root 6.97687 17.8985 -7.192 -542.434 0.329879 -537.238
lowerback 14.5723 0.30969 0.561038
upperback 1.01284 0.772779 1.14133
thorax -7.11379 0.45493 0.726847
lowerneck -13.2625 -3.26976 -13.9878
upperneck 37.9465 -9.66541 8.58991
head 17.1603 -6.52044 4.08997
rclavicle -7.27894e-015 -2.45996e-015
rhumerus -32.6106 -19.0603 -76.9005
rradius 31.377
rwrist 7.17015
rhand -19.4829 9.55884
rfingers 7.12502
rthumb 6.83897 -20.3107
lclavicle -7.27894e-015 -2.45996e-015
lhumerus -36.4068 9.24554 73.0592
lradius 33.5449
lwrist -4.094
lhand -19.6543 23.885
lfingers 7.12502
lthumb 6.67358 53.7599
rfemur -4.83572 -2.04438 15.8348
rtibia 23.2288
rfoot -14.2948 1.78882
rtoes -15.2154
lfemur -3.95854 -5.17037 -3.64296
ltibia 28.6792
lfoot -0.654185 22.0918
ltoes 5.37149
2988
root 7.05194 17.9159 -7.18767 -542.394 0.58145 -537.38
lowerback 14.5458 0.286694 0.495606
upperback 1.0874 0.731558 1.10578
thorax -7.01906 0.438095 0.734636
lowerneck -13.2421 -3.21909 -13.8641
upperneck 37.9217 -9.6034 8.51606
head 17.115 -6.4879 4.04544
rclavicle -4.93856e-015 4.11236e-015
rhumerus -32.4169 -18.8 -76.9411
rradius 31.5697
rwrist 6.86438
rhand -19.7214 10.7671
rfingers 7.12502
rthumb 6.60877 -19.1098
lclavicle -4.93856e-015 4.11236e-015
lhumerus -36.4424 9.03606 73.3486
lradius 33.7381
lwrist -4.34343
lhand -20.2789 22.8899
lfingers 7.12502
lthumb 6.07058 52.7829
rfemur -4.82275 -2.29738 15.9119
rtibia 23.0463
rfoot -14.4262 2.27075
rtoes -15.0869
lfemur -4.42391 -4.76321 -3.91176
ltibia 29.4843
lfoot -1.26769 20.8914
ltoes 4.26633
2989
root 7.12744 17.929 -7.18666 -542.331 0.916926 -537.335
lowerback 14.5283 0.308248 0.583197
upperback 1.09379 0.777362 1.13958
thorax -7.00244 0.458579 0.711701
lowerneck -13.1515 -3.16867 -13.6442
upperneck 37.9002 -9.54001 8.32708
head 17.0385 -6.45877 3.93215
rclavicle 5.6409e-015 9.84605e-015
rhumerus -32.4017 -18.3182 -76.929
rradius 32.0266
rwrist 6.28836
rhand -19.8068 11.308
rfingers 7.12502
rthumb 6.52634 -18.5714
lclavicle 5.6409e-015 9.84605e-015
lhumerus -36.5491 8.67574 73.7148
lradius 33.9898
lwrist -4.4117
lhand -19.9707 22.9439
lfingers 7.12502
lthumb 6.36807 52.8282
rfemur -4.86295 -2.24465 16.2273
rtibia 22.8962
rfoot -14.427 2.57485
rtoes -14.4888
lfemur -4.84907 -4.19256 -3.98631
ltibia 30.243
lfoot -2.02006 19.1101
ltoes 2.41514
2990
root 7.19961 17.9382 -7.18595 -542.275 1.24638 -537.24
lowerback 14.5491 0.355135 0.78435
upperback 1.099 0.87677 1.17039
thorax -7.00718 0.502103 0.610118
lowerneck -13.1219 -3.19977 -13.5802
upperneck 37.8472 -9.60286 8.31236
head 17.0074 -6.47523 3.90107
rclavicle -1.59346e-014 -7.88305e-015
rhumerus -32.4409 -17.9946 -76.8419
rradius 32.5154
rwrist 5.6656
rhand -19.6315 10.8318
rfingers 7.12502
rthumb 6.6956 -19.0424
lclavicle -1.59346e-014 -7.88305e-015
lhumerus -36.5797 8.2796 74.1297
lradius 34.1135
lwrist -4.54797
lhand -20.2338 22.6103
lfingers 7.12502
lthumb 6.11413 52.5021
rfemur -4.8889 -2.01265 16.5961
rtibia 22.7644
rfoot -14.3713 2.75249
rtoes -13.6382
lfemur -5.25552 -3.68763 -4.04925
ltibia 30.9584
lfoot -2.94376 17.0496
ltoes 0.89792
2991
root 7.27036 17.9516 -7.18384 -542.314 1.54446 -537.458
lowerback 14.665 0.405031 0.635606
upperback 1.14294 0.919183 1.12236
thorax -7.02625 0.527742 0.633733
lowerneck -13.3022 -8.53695 -12.5048
upperneck 38.9152 -7.32571 6.01406
head 17.3454 -2.70703 3.98315
rclavicle -7.14382e-015 -1.26725e-015
rhumerus -32.4693 -17.8256 -76.6822
rradius 32.8972
rwrist 5.48118
rhand -19.577 10.9107
rfingers 7.12502
rthumb 6.74813 -18.9618
lclavicle -7.14382e-015 -1.26725e-015
lhumerus -36.6537 8.08403 74.4857
lradius 34.2689
lwrist -4.85441
lhand -20.6918 22.2555
lfingers 7.12502
lthumb 5.67189 52.1596
rfemur -4.84606 -1.79557 16.6181
rtibia 22.6506
rfoot -14.3106 2.89066
rtoes -13.0207
lfemur -5.5802 -3.35214 -4.52642
ltibia 31.6408
lfoot -3.91081 14.8986
ltoes -0.135657
2992
root 7.33812 17.9686 -7.18112 -542.338 1.79959 -537.796
lowerback 14.716 0.401463 0.355902
upperback 1.20154 0.864457 1.04143
thorax -6.99389 0.509218 0.71705
lowerneck -13.3319 -8.53063 -12.621
upperneck 38.9762 -7.34957 6.21169
head 17.4112 -2.70787 4.09509
rclavicle -9.1472e-015 -3.55328e-015
rhumerus -32.3854 -17.6357 -76.573
rradius 33.2216
rwrist 5.54382
rhand -19.5322 11.1179
rfingers 7.12502
rthumb 6.7914 -18.7532
lclavicle -9.1472e-015 -3.55328e-015
lhumerus -36.6793 8.18182 74.6819
lradius 34.4199
lwrist -5.17756
lhand -20.6689 22.3781
lfingers 7.12502
lthumb 5.69399 52.2816
rfemur -4.83955 -1.62265 16.5081
rtibia 22.5643
rfoot -14.2958 2.94369
rtoes -12.8647
lfemur -5.91342 -3.11319 -5.19292
ltibia 32.2938
lfoot -4.7098 12.7138
ltoes -2.06736
2993
root 7.39958 17.9798 -7.17825 -542.328 2.12113 -537.964
lowerback 14.7382 0.418787 0.299279
upperback 1.18072 0.871163 0.98772
thorax -7.02846 0.511904 0.690609
lowerneck -13.0237 -8.48204 -12.5803
upperneck 38.8919 -7.31573 6.21691
head 17.2763 -2.68715 4.0971
rclavicle -8.09116e-015 -1.14053e-014
rhumerus -32.4273 -17.3116 -76.4976
rradius 33.5553
rwrist 5.21286
rhand -19.4607 11.4041
rfingers 7.12502
rthumb 6.86039 -18.4647
lclavicle -8.09116e-015 -1.14053e-014
lhumerus -36.7955 8.154 74.8728
lradius 34.5776
lwrist -5.37605
lhand -20.5439 22.3903
lfingers 7.12502
lthumb 5.81475 52.2905
rfemur -4.86583 -1.33689 16.5653
rtibia 22.5239
rfoot -14.3354 2.97223
rtoes -12.1799
lfemur -6.26015 -2.94319 -5.71786
ltibia 32.9076
lfoot -5.56252 10.5248
ltoes -4.50987
2994
root 7.45973 17.9831 -7.17351 -542.292 2.49642 -538.006
lowerback 14.8115 0.495977 0.346152
upperback 1.08287 0.975252 0.984167
thorax -7.17447 0.557735 0.638124
lowerneck -12.5775 -8.46322 -12.5416
upperneck 38.7366 -7.30115 6.11245
head 17.065 -2.69 4.04214
rclavicle -4.95719e-015 -1.69464e-014
rhumerus -32.7102 -17.0043 -76.2662
rradius 33.9767
rwrist 4.66995
rhand -19.4677 11.9501
rfingers 7.12502
rthumb 6.85368 -17.919
lclavicle -4.95719e-015 -1.69464e-014
lhumerus -37.0275 7.95833 75.1556
lradius 34.7612
lwrist -5.48665
lhand -20.5709 22.0409
lfingers 7.12502
lthumb 5.78862 51.9418
rfemur -4.94737 -1.10093 16.7526
rtibia 22.5263
rfoot -14.449 3.06973
rtoes -11.9139
lfemur -6.61332 -2.76919 -6.11583
ltibia 33.4319
lfoot -6.35208 8.39641
ltoes -7.20449
2995
root 7.5174 17.9829 -7.16645 -542.21 2.84406 -537.86
lowerback 14.8405 0.536953 0.617423
upperback 1.09485 1.07945 1.01124
thorax -7.17477 0.601342 0.491321
lowerneck -12.6379 -8.51697 -12.5147
upperneck 38.7253 -7.40326 6.10851
head 17.0859 -2.73444 4.01252
rclavicle 2.72087e-015 9.93923e-017
rhumerus -32.8149 -16.9587 -76.0486
rradius 34.4293
rwrist 4.3767
rhand -19.4164 12.0019
rfingers 7.12502
rthumb 6.90324 -17.8656
lclavicle 2.72087e-015 9.93923e-017
lhumerus -37.0871 7.89923 75.4394
lradius 35.0634
lwrist -5.54577
lhand -20.6011 22.0724
lfingers 7.12502
lthumb 5.75951 51.9741
rfemur -5.12921 -0.892462 17.1624
rtibia 22.6045
rfoot -14.5448 3.04672
rtoes -12.1233
lfemur -7.02951 -2.61264 -6.31933
ltibia 33.8504
lfoot -6.70965 6.833
ltoes -11.2594
2996
root 7.56954 17.9873 -7.16611 -542.147 3.16335 -537.954
lowerback 14.7894 0.540782 0.729687
upperback 1.12605 1.0983 0.956493
thorax -7.10985 0.606538 0.366452
lowerneck -12.6795 -8.51424 -12.6408
upperneck 38.7169 -7.42952 6.26076
head 17.1137 -2.74875 4.09798
rclavicle -8.11911e-015 -1.01877e-014
rhumerus -32.8432 -17.1 -75.8393
rradius 34.7818
rwrist 4.37463
rhand -19.1958 11.7902
rfingers 7.12502
rthumb 7.11611 -18.0702
lclavicle -8.11911e-015 -1.01877e-014
lhumerus -37.1948 7.99112 75.629
lradius 35.392
lwrist -5.51127
lhand -20.6581 22.1881
lfingers 7.12502
lthumb 5.70442 52.0913
rfemur -5.33108 -0.681869 17.2704
rtibia 22.7928
rfoot -14.6612 3.01886
rtoes -12.1671
lfemur -7.40852 -2.64909 -6.89873
ltibia 34.1592
lfoot -7.23155 5.69518
ltoes -14.1759
